<?xml version="1.0" encoding="UTF-8" standalone="no"?>
<svg width="446px" height="446px" viewBox="0 0 446 446" version="1.1" xmlns="http://www.w3.org/2000/svg" xmlns:xlink="http://www.w3.org/1999/xlink" xmlns:sketch="http://www.bohemiancoding.com/sketch/ns">
    <!-- Generator: Sketch 3.2.1 (9971) - http://www.bohemiancoding.com/sketch -->
    <title>icon</title>
    <desc>Created with Sketch.</desc>
    <defs></defs>
    <g id="Page-1" stroke="none" stroke-width="1" fill="none" fill-rule="evenodd" sketch:type="MSPage">
        <g id="noun_38883_cc" sketch:type="MSLayerGroup" transform="translate(189.000000, 199.000000)"></g>
        <circle id="Oval-1" fill="#646464" sketch:type="MSShapeGroup" cx="223" cy="223" r="223"></circle>
        <path d="M262.831186,242.527465 C304.600787,238.574434 286.218049,262.978118 331.500821,242.527465 C376.77788,222.076813 406.734087,236.198046 406.734087,236.198046 C406.734087,236.198046 354.150775,189.938441 311.404342,201.620448 C268.675046,213.31388 281.813733,234.495729 281.813733,234.495729 C281.813733,234.495729 259.163779,228.806106 238.713126,241.065072 C233.748987,244.041271 229.801669,248.588399 226.87117,252.947016 C231.21265,217.763896 228.322138,176.822604 228.322138,176.822604 C287.229157,157.628696 189.785797,86 189.785797,86 C189.785797,86 184.278974,130.58585 185.381481,159.759448 C186.483988,188.927334 222.535403,177.993661 222.535403,177.993661 C225.460189,194.188521 221.227247,227.052377 217.896876,248.171388 C214.852128,234.13013 208.362759,215.444632 194.87561,208.920988 C194.87561,208.920988 199.26279,177.508101 165.656312,187.007943 C132.055548,196.507785 127.839743,208.178367 116.186299,221.991126 C107.851801,231.867991 87.7381844,264.440511 87.7381844,264.440511 C87.7381844,264.440511 152.997473,200.649328 188.546191,215.25612 C201.696303,219.157739 210.464949,232.302139 210.2136,273.940353 C210.030801,304.216458 207.842924,319.942896 206.192019,327.546197 L182.479545,327.546197 L201.879102,316.092689 L19,307.004145 L148.627431,323.513191 L94.9587499,335.075236 L225.408777,340.856258 L201.87339,360.672826 L291.456387,352.418303 L362.468135,360.672826 L294.763909,340.856258 L249.144101,345.986059 L279.066034,327.540485 L220.05619,327.540485 C219.142195,307.586817 219.907666,246.594746 262.831186,242.527465 L262.831186,242.527465 Z M300.81913,239.585542 C307.382761,236.849267 325.040014,228.566182 349.255186,225.270085 C373.47607,221.968276 380.628086,227.195189 380.628086,227.195189 C380.628086,227.195189 355.858805,222.516673 322.000979,240.402425 C304.360863,249.736606 294.261211,242.310391 300.81913,239.585542 L300.81913,239.585542 Z M142.298011,203.248503 L153.311659,195.542377 C187.986368,179.576016 190.73978,199.621083 190.73978,199.621083 C182.199633,187.607752 142.298011,203.248503 142.298011,203.248503 L142.298011,203.248503 Z M208.899731,115.185023 C208.899731,115.185023 223.352287,144.769919 224.591894,151.367825 C224.591894,151.367825 227.065394,144.347196 224.591894,127.83815 C224.591894,127.83815 230.915601,152.196134 228.167902,167.471286 C228.167902,167.471286 217.714076,162.518572 208.899731,115.185023 L208.899731,115.185023 Z" id="Shape" fill="#A9A9A9" sketch:type="MSShapeGroup"></path>
        <path d="M331.500821,242.527465 C376.77788,222.076813 406.734087,236.198046 406.734087,236.198046 C406.734087,236.198046 354.150775,189.938441 311.404342,201.620448 C268.675046,213.31388 281.813733,234.495729 281.813733,234.495729 C281.813733,234.495729 259.163779,228.806106 238.713126,241.065072 C233.748987,244.041271 229.801669,248.588399 226.87117,252.947016 C231.21265,217.763896 228.322138,176.822604 228.322138,176.822604 C287.229157,157.628696 189.785797,86 189.785797,86 C189.785797,86 184.278974,130.58585 185.381481,159.759448 C186.483988,188.927334 222.535403,177.993661 222.535403,177.993661 C225.460189,194.188521 221.227247,227.052377 217.896876,248.171388 C214.852128,234.13013 208.362759,215.444632 194.87561,208.920988 C194.87561,208.920988 199.26279,177.508101 165.656312,187.007943 C132.055548,196.507785 127.839743,208.178367 116.186299,221.991126 C107.851801,231.867991 87.7381844,264.440511 87.7381844,264.440511 C87.7381844,264.440511 152.997473,200.649328 188.546191,215.25612 C201.696303,219.157739 210.464949,232.302139 210.2136,273.940353 C210.030801,304.216458 203.992093,332.231782 202.341189,339.835083 L220.49177,340.621292 C219.577775,320.667625 219.907666,246.594746 262.831186,242.527465 C304.600787,238.574434 286.218049,262.978118 331.500821,242.527465 Z M300.81913,239.585542 C307.382761,236.849267 325.040014,228.566182 349.255186,225.270085 C373.47607,221.968276 380.628086,227.195189 380.628086,227.195189 C380.628086,227.195189 355.858805,222.516673 322.000979,240.402425 C304.360863,249.736606 294.261211,242.310391 300.81913,239.585542 L300.81913,239.585542 Z M142.298011,203.248503 L153.311659,195.542377 C187.986368,179.576016 190.73978,199.621083 190.73978,199.621083 C182.199633,187.607752 142.298011,203.248503 142.298011,203.248503 L142.298011,203.248503 Z M208.899731,115.185023 C208.899731,115.185023 223.352287,144.769919 224.591894,151.367825 C224.591894,151.367825 227.065394,144.347196 224.591894,127.83815 C224.591894,127.83815 230.915601,152.196134 228.167902,167.471286 C228.167902,167.471286 217.714076,162.518572 208.899731,115.185023 L208.899731,115.185023 Z" id="Shape-2" fill="#A8D3A9" sketch:type="MSShapeGroup"></path>
    </g>
</svg>